<svg xmlns="http://www.w3.org/2000/svg" xmlns:xlink="http://www.w3.org/1999/xlink" width="30" zoomAndPan="magnify" viewBox="0 0 37.5 37.499999" height="30" preserveAspectRatio="xMidYMid meet" version="1.0"><defs><clipPath id="9343982645"><path d="M 1.707031 1.707031 L 35.457031 1.707031 L 35.457031 35.457031 L 1.707031 35.457031 Z M 1.707031 1.707031 " clip-rule="nonzero"/></clipPath></defs><g clip-path="url(#9343982645)"><path fill="#000000" d="M 4.050781 35.386719 C 3.496094 35.386719 2.945312 35.175781 2.523438 34.753906 C 1.675781 33.90625 1.675781 32.539062 2.523438 31.695312 L 31.585938 2.628906 C 32.433594 1.785156 33.800781 1.785156 34.644531 2.628906 C 35.492188 3.476562 35.492188 4.84375 34.644531 5.6875 L 5.582031 34.753906 C 5.15625 35.175781 4.605469 35.386719 4.050781 35.386719 Z M 4.050781 35.386719 " fill-opacity="0.7" fill-rule="nonzero"/><path fill="#000000" d="M 33.117188 35.386719 C 32.5625 35.386719 32.007812 35.175781 31.585938 34.753906 L 2.523438 5.6875 C 1.675781 4.84375 1.675781 3.476562 2.523438 2.628906 C 3.367188 1.785156 4.734375 1.785156 5.582031 2.628906 L 34.644531 31.695312 C 35.492188 32.539062 35.492188 33.90625 34.644531 34.753906 C 34.222656 35.175781 33.667969 35.386719 33.117188 35.386719 Z M 33.117188 35.386719 " fill-opacity="0.7" fill-rule="nonzero"/></g></svg>