<svg xmlns="http://www.w3.org/2000/svg" xmlns:xlink="http://www.w3.org/1999/xlink" width="50" zoomAndPan="magnify" viewBox="0 0 37.5 37.499999" height="50" preserveAspectRatio="xMidYMid meet" version="1.0"><defs><clipPath id="a1e7ffca97"><path d="M 0 6 L 37.007812 6 L 37.007812 31 L 0 31 Z M 0 6 " clip-rule="nonzero"/></clipPath><clipPath id="bb30b6d07e"><path d="M 35 5.191406 L 37.007812 5.191406 L 37.007812 10 L 35 10 Z M 35 5.191406 " clip-rule="nonzero"/></clipPath></defs><g clip-path="url(#a1e7ffca97)"><path fill="#ffd2dd" d="M -3.265625 30.652344 C -3.265625 30.652344 29.660156 32.191406 38.753906 14.859375 C 40.957031 10.660156 34.6875 5.449219 30.453125 7.296875 C 26.214844 9.148438 22.652344 23.601562 -3.265625 30.652344 Z M -3.265625 30.652344 " fill-opacity="1" fill-rule="nonzero"/></g><g clip-path="url(#bb30b6d07e)"><path fill="#000000" d="M 35.421875 8.082031 C 35.421875 8.082031 37.808594 7.398438 38.171875 5.191406 L 38.941406 5.394531 C 38.941406 5.394531 37.160156 7.960938 37.199219 9.445312 Z M 35.421875 8.082031 " fill-opacity="1" fill-rule="nonzero"/></g><path fill="#000000" d="M 31.324219 13.109375 C 30.667969 14 29.914062 14.816406 29.113281 15.578125 C 28.3125 16.339844 27.460938 17.046875 26.59375 17.734375 C 26.105469 18.125 25.609375 18.503906 25.113281 18.886719 C 25.027344 18.953125 25.144531 19.066406 25.226562 19 C 26.113281 18.320312 26.996094 17.636719 27.847656 16.917969 C 28.699219 16.199219 29.523438 15.449219 30.273438 14.632812 C 30.695312 14.171875 31.09375 13.691406 31.464844 13.191406 C 31.53125 13.105469 31.386719 13.027344 31.324219 13.109375 Z M 31.324219 13.109375 " fill-opacity="1" fill-rule="nonzero"/><path fill="#000000" d="M 16.167969 23.910156 C 15.066406 24.59375 13.929688 25.230469 12.777344 25.824219 C 11.617188 26.417969 10.425781 26.960938 9.21875 27.453125 C 8.011719 27.949219 6.78125 28.394531 5.535156 28.789062 C 4.292969 29.183594 3.035156 29.523438 1.765625 29.8125 C 0.496094 30.101562 -0.78125 30.339844 -2.070312 30.519531 C -2.234375 30.542969 -2.398438 30.566406 -2.5625 30.585938 C -2.667969 30.601562 -2.667969 30.761719 -2.5625 30.75 C -1.261719 30.578125 0.0273438 30.355469 1.308594 30.078125 C 2.589844 29.800781 3.863281 29.46875 5.117188 29.085938 C 6.367188 28.703125 7.601562 28.273438 8.816406 27.789062 C 10.035156 27.300781 11.226562 26.769531 12.398438 26.191406 C 13.570312 25.605469 14.722656 24.972656 15.84375 24.300781 C 15.980469 24.214844 16.117188 24.132812 16.253906 24.046875 C 16.34375 23.996094 16.261719 23.851562 16.167969 23.910156 Z M 16.167969 23.910156 " fill-opacity="1" fill-rule="nonzero"/><path fill="#000000" d="M 1.894531 24.207031 C 2.175781 24 3.175781 23.4375 3.175781 23.4375 C 3.175781 23.4375 3.449219 22.933594 3.707031 23.128906 C 3.96875 23.324219 4.167969 23.308594 4.003906 23.527344 C 3.84375 23.746094 3.601562 23.824219 3.511719 24.042969 C 3.425781 24.261719 3.386719 24.222656 3.660156 24.789062 C 3.933594 25.355469 4.046875 25.628906 4.292969 26.039062 C 4.539062 26.445312 4.632812 26.621094 4.804688 26.792969 C 4.972656 26.964844 4.945312 27.320312 5.21875 27.226562 C 5.492188 27.136719 5.777344 26.980469 5.777344 26.980469 L 6.136719 27.253906 C 6.136719 27.253906 6.214844 27.570312 5.964844 27.667969 C 5.714844 27.769531 5.011719 27.753906 5.011719 27.753906 C 5.011719 27.753906 4.5 27.921875 4.195312 27.953125 C 3.894531 27.988281 3.6875 28.097656 3.550781 27.910156 C 3.410156 27.726562 3.433594 27.636719 3.667969 27.507812 C 3.90625 27.378906 4.222656 27.546875 4.121094 27.296875 C 4.019531 27.050781 3.828125 26.632812 3.828125 26.632812 L 3.394531 25.777344 C 3.394531 25.777344 3.070312 25.148438 2.898438 24.902344 C 2.726562 24.660156 2.882812 24.289062 2.597656 24.425781 C 2.308594 24.566406 2.464844 24.703125 2.136719 24.660156 C 1.800781 24.617188 1.800781 24.28125 1.894531 24.207031 Z M 1.894531 24.207031 " fill-opacity="1" fill-rule="nonzero"/><path fill="#000000" d="M 4.511719 22.640625 C 4.839844 22.445312 5.007812 22.371094 5.292969 22.234375 C 5.582031 22.101562 5.859375 21.890625 5.859375 21.890625 C 5.859375 21.890625 6.203125 21.792969 6.265625 22.007812 C 6.328125 22.21875 6.40625 22.289062 6.304688 22.382812 C 6.203125 22.472656 5.996094 22.441406 5.941406 22.617188 C 5.890625 22.796875 5.476562 22.289062 5.839844 22.953125 C 6.203125 23.621094 6.367188 23.910156 6.714844 24.46875 C 7.058594 25.03125 7.273438 25.214844 7.503906 25.597656 C 7.734375 25.976562 7.757812 26.058594 7.953125 26.378906 C 8.152344 26.703125 8.40625 26.679688 8.214844 26.917969 C 8.023438 27.15625 7.839844 27.199219 7.652344 27.070312 C 7.464844 26.941406 7.242188 26.5625 6.996094 26.152344 C 6.75 25.742188 6.507812 25.40625 6.347656 25.117188 C 6.191406 24.828125 6.046875 24.640625 5.898438 24.402344 C 5.75 24.164062 5.710938 24.132812 5.535156 23.8125 C 5.355469 23.496094 5.308594 23.410156 5.183594 23.253906 C 5.058594 23.097656 4.867188 22.992188 4.867188 22.992188 C 4.867188 22.992188 4.734375 23.195312 4.546875 23.089844 C 4.355469 22.988281 4.234375 23.074219 4.265625 22.886719 C 4.296875 22.695312 4.511719 22.640625 4.511719 22.640625 Z M 4.511719 22.640625 " fill-opacity="1" fill-rule="nonzero"/><path fill="#000000" d="M 6.914062 22.777344 C 6.890625 22.535156 6.726562 22.507812 6.835938 22.125 C 6.949219 21.746094 6.863281 21.625 7.105469 21.71875 C 7.347656 21.8125 7.585938 21.417969 7.441406 21.984375 C 7.300781 22.550781 6.929688 22.902344 6.914062 22.777344 Z M 6.914062 22.777344 " fill-opacity="1" fill-rule="nonzero"/><path fill="#000000" d="M 8.441406 20.507812 C 8.226562 21.242188 7.847656 21.351562 8.386719 22.1875 C 8.921875 23.023438 8.8125 23.0625 9.28125 23.46875 C 9.75 23.871094 9.875 23.445312 10.050781 24.105469 C 10.222656 24.761719 10.335938 24.871094 10.148438 25.421875 C 9.960938 25.972656 9.535156 26.261719 9.953125 26.261719 C 10.371094 26.261719 10.503906 26.542969 10.707031 25.949219 C 10.90625 25.347656 10.972656 25.03125 10.945312 24.636719 C 10.917969 24.242188 11.011719 23.90625 10.761719 23.589844 C 10.515625 23.277344 10.4375 23.035156 9.976562 22.855469 C 9.515625 22.671875 9.464844 22.847656 9.234375 22.394531 C 9 21.9375 8.832031 21.9375 8.996094 21.375 C 9.15625 20.816406 9.296875 20.859375 9.253906 20.507812 C 9.210938 20.15625 9.402344 19.917969 9.066406 20.0625 C 8.730469 20.203125 8.496094 20.324219 8.441406 20.507812 Z M 8.441406 20.507812 " fill-opacity="1" fill-rule="nonzero"/><path fill="#000000" d="M 16.503906 22.117188 C 16.503906 22.117188 16.027344 21.660156 15.71875 21.378906 C 15.410156 21.09375 15.253906 21.054688 14.765625 20.644531 C 14.277344 20.234375 14.304688 20.222656 13.589844 19.480469 C 12.882812 18.738281 12.957031 18.808594 12.609375 18.492188 C 12.261719 18.171875 12.449219 18.371094 12.277344 18.445312 C 12.109375 18.515625 12.210938 18.667969 12.125 18.957031 C 12.039062 19.246094 12.398438 19.6875 12.492188 20.105469 C 12.589844 20.523438 12.769531 20.742188 13.054688 21.363281 C 13.335938 21.976562 13.414062 22.292969 13.609375 22.882812 C 13.800781 23.472656 14.113281 24.070312 14.246094 24.375 L 14.277344 24.285156 C 14.277344 24.285156 14.796875 24.171875 15.125 23.972656 C 15.449219 23.777344 15.1875 23.671875 15.015625 23.261719 C 14.839844 22.847656 14.886719 23.03125 14.621094 22.445312 C 14.351562 21.859375 14.199219 21.640625 14.199219 21.640625 L 14.542969 21.546875 C 14.804688 21.671875 14.683594 21.660156 15.015625 21.949219 C 15.34375 22.242188 15.195312 22.074219 15.511719 22.335938 C 15.828125 22.597656 15.996094 22.691406 16.34375 22.84375 C 16.6875 22.992188 16.480469 22.789062 16.695312 22.558594 C 16.90625 22.332031 16.503906 22.117188 16.503906 22.117188 Z M 13.746094 20.953125 C 13.472656 21.042969 13.535156 20.914062 13.4375 20.667969 C 13.335938 20.421875 13.148438 20.148438 13.128906 19.972656 L 13.289062 20.019531 L 14.003906 20.589844 C 13.992188 20.585938 14.011719 20.859375 13.746094 20.953125 Z M 13.746094 20.953125 " fill-opacity="1" fill-rule="nonzero"/><path fill="#000000" d="M 18.164062 21.144531 C 18.101562 21.027344 17.679688 20.128906 17.335938 19.640625 C 16.988281 19.152344 16.789062 18.921875 16.542969 18.515625 C 16.296875 18.105469 16.238281 17.820312 16 17.363281 C 15.765625 16.910156 15.722656 16.824219 15.695312 16.570312 C 15.671875 16.320312 15.53125 16.132812 15.632812 15.949219 C 15.738281 15.757812 15.597656 15.40625 15.84375 15.574219 C 16.085938 15.738281 16.503906 16.152344 16.789062 16.429688 C 17.074219 16.703125 17.421875 17.097656 17.722656 17.332031 C 18.019531 17.5625 18.277344 17.515625 18.277344 17.515625 C 18.277344 17.515625 17.765625 16.519531 17.488281 16.046875 C 17.210938 15.578125 17.003906 15.375 16.917969 15.082031 C 16.832031 14.792969 16.597656 14.601562 16.894531 14.589844 C 17.191406 14.574219 16.992188 14.25 17.636719 14.804688 C 18.277344 15.355469 18.386719 15.3125 18.890625 15.847656 C 19.394531 16.382812 20.199219 17.050781 20.199219 17.050781 C 20.199219 17.050781 20.570312 17.207031 20.789062 17.535156 C 21.011719 17.867188 21.179688 17.625 21.0625 18.023438 C 20.941406 18.429688 21.085938 18.519531 20.863281 18.546875 C 20.632812 18.578125 20.601562 18.519531 20.1875 18.109375 C 19.769531 17.703125 19.765625 17.722656 19.460938 17.417969 C 19.160156 17.113281 19.0625 16.9375 18.914062 16.871094 C 18.765625 16.804688 18.949219 16.925781 18.761719 16.804688 C 18.582031 16.679688 18.398438 16.214844 18.734375 17.058594 C 19.070312 17.910156 19.09375 17.914062 19.160156 18.175781 C 19.226562 18.4375 19.570312 18.6875 19.0625 18.585938 C 18.554688 18.484375 18.113281 18.40625 17.894531 18.242188 C 17.675781 18.082031 17.351562 17.671875 17.476562 18 C 17.601562 18.328125 17.851562 18.644531 18.324219 19.195312 C 18.800781 19.746094 18.863281 19.789062 18.992188 20.09375 C 19.121094 20.398438 19.230469 20.28125 19.121094 20.566406 C 19.011719 20.851562 18.800781 20.910156 18.582031 20.992188 C 18.351562 21.078125 18.164062 21.144531 18.164062 21.144531 Z M 18.164062 21.144531 " fill-opacity="1" fill-rule="nonzero"/><path fill="#000000" d="M 22.816406 15.726562 C 22.890625 15.40625 22.703125 15.621094 22.578125 15.535156 C 22.457031 15.449219 22.074219 15.410156 21.570312 15.050781 C 21.066406 14.683594 20.582031 14.085938 20.09375 13.675781 C 19.605469 13.269531 18.851562 12.832031 18.851562 12.832031 C 18.851562 12.832031 18.652344 13.015625 18.464844 13.394531 C 18.277344 13.78125 18.492188 13.546875 18.582031 13.84375 C 18.667969 14.132812 18.710938 14.074219 19.015625 14.527344 C 19.324219 14.980469 19.269531 14.820312 19.746094 15.464844 C 20.214844 16.109375 20.433594 16.273438 20.871094 16.785156 C 21.308594 17.296875 21.394531 17.421875 21.59375 17.648438 C 21.59375 17.648438 21.765625 17.554688 21.992188 17.378906 C 22.21875 17.203125 22.097656 17.265625 22.117188 16.957031 C 22.136719 16.648438 21.859375 16.761719 21.332031 16.21875 C 20.804688 15.675781 21 15.757812 21.085938 15.640625 C 21.171875 15.519531 21.335938 15.882812 21.691406 16.082031 C 22.046875 16.28125 22.175781 16.34375 22.578125 16.386719 C 22.976562 16.429688 22.75 16.042969 22.816406 15.726562 Z M 20.539062 15.234375 C 20.425781 15.375 20.316406 15.167969 20.144531 14.925781 C 19.96875 14.683594 19.78125 14.410156 19.523438 14.042969 C 19.523438 14.042969 19.832031 14.15625 20.070312 14.347656 C 20.304688 14.535156 20.636719 14.828125 20.636719 14.828125 C 20.636719 14.828125 20.65625 15.097656 20.539062 15.234375 Z M 20.539062 15.234375 " fill-opacity="1" fill-rule="nonzero"/><path fill="#000000" d="M 19.800781 11.601562 C 20.039062 11.304688 20.265625 10.933594 20.507812 10.710938 C 20.742188 10.488281 21.109375 10.160156 21.109375 10.160156 L 21.480469 10.074219 C 21.480469 10.074219 21.78125 10.453125 21.636719 10.703125 C 21.488281 10.949219 21.128906 11.015625 21.316406 11.285156 C 21.503906 11.558594 21.679688 11.632812 22.066406 12.15625 C 22.449219 12.679688 22.722656 12.832031 23.089844 13.160156 C 23.460938 13.480469 23.539062 13.535156 23.792969 13.753906 C 24.046875 13.972656 24.242188 13.90625 24.214844 14.140625 C 24.199219 14.378906 24.25 14.683594 23.988281 14.679688 C 23.71875 14.675781 23.664062 14.683594 23.316406 14.390625 C 22.960938 14.09375 22.933594 14.03125 22.578125 13.738281 C 22.222656 13.445312 22.199219 13.363281 21.800781 12.976562 C 21.402344 12.59375 21.289062 12.394531 21.082031 12.1875 C 20.875 11.984375 20.941406 11.496094 20.683594 11.710938 C 20.425781 11.921875 20.429688 12.070312 20.257812 12.164062 C 20.085938 12.261719 20.136719 12.320312 19.917969 12.164062 C 19.695312 12.007812 19.492188 12.042969 19.582031 11.898438 C 19.660156 11.75 19.800781 11.601562 19.800781 11.601562 Z M 19.800781 11.601562 " fill-opacity="1" fill-rule="nonzero"/><path fill="#000000" d="M 22.742188 8.863281 C 22.644531 9.367188 22.449219 9.359375 22.609375 9.964844 C 22.773438 10.566406 22.5 10.417969 23.105469 11.199219 C 23.703125 11.980469 23.851562 12.3125 24.296875 12.539062 C 24.742188 12.769531 24.761719 13.007812 25.132812 12.992188 C 25.5 12.976562 26.207031 13.042969 26.378906 12.878906 C 26.550781 12.710938 26.257812 11.945312 25.945312 11.855469 C 25.636719 11.765625 25.914062 11.894531 25.375 11.886719 C 24.839844 11.875 24.90625 11.988281 24.488281 11.652344 C 24.074219 11.316406 23.980469 11.382812 23.78125 10.816406 C 23.578125 10.25 23.46875 10.289062 23.460938 9.828125 C 23.449219 9.359375 23.476562 9.175781 23.386719 8.832031 C 23.292969 8.492188 23.453125 8.03125 23.148438 8.324219 C 22.839844 8.621094 22.785156 8.632812 22.742188 8.863281 Z M 22.742188 8.863281 " fill-opacity="1" fill-rule="nonzero"/><path fill="#000000" d="M 23.960938 7.226562 C 24.214844 8.03125 24.941406 8.554688 25.203125 8.996094 C 25.46875 9.4375 25.554688 9.632812 25.878906 10.015625 C 26.207031 10.402344 26.363281 10.691406 26.546875 10.914062 C 26.722656 11.140625 26.742188 11.238281 26.957031 11.179688 C 27.167969 11.121094 27.421875 11.34375 27.21875 10.96875 C 27.011719 10.59375 26.777344 10.308594 26.777344 10.308594 C 26.777344 10.308594 26.4375 9.964844 26.332031 9.671875 C 26.226562 9.371094 25.871094 9.320312 26.207031 9.175781 C 26.542969 9.027344 26.761719 8.949219 26.980469 9.109375 C 27.203125 9.269531 27.183594 9.09375 27.605469 9.65625 C 28.027344 10.214844 27.929688 10.003906 28.226562 10.40625 C 28.523438 10.804688 28.578125 10.972656 28.980469 10.945312 C 29.378906 10.914062 29.597656 11.03125 29.289062 10.429688 C 28.976562 9.832031 29.269531 10.234375 28.894531 9.6875 C 28.515625 9.140625 28.480469 9.007812 28.054688 8.476562 C 27.628906 7.945312 27.292969 7.40625 27.292969 7.40625 L 26.675781 6.601562 C 26.675781 6.601562 25.835938 5.628906 25.871094 6.265625 C 25.902344 6.902344 26.058594 7.121094 26.234375 7.511719 C 26.410156 7.902344 26.660156 7.808594 26.464844 8.140625 C 26.269531 8.472656 26.359375 8.738281 26.019531 8.496094 C 25.671875 8.25 25.667969 8.273438 25.40625 7.835938 C 25.140625 7.394531 25.164062 7.230469 24.847656 7.066406 C 24.53125 6.898438 24.4375 6.632812 24.253906 6.917969 C 24.074219 7.1875 23.9375 7.144531 23.960938 7.226562 Z M 23.960938 7.226562 " fill-opacity="1" fill-rule="nonzero"/></svg>