<svg xmlns="http://www.w3.org/2000/svg" xmlns:xlink="http://www.w3.org/1999/xlink" width="50" zoomAndPan="magnify" viewBox="0 0 37.5 37.499999" height="50" preserveAspectRatio="xMidYMid meet" version="1.0"><defs><clipPath id="6576052390"><path d="M 0 0 L 37.007812 0 L 37.007812 37.007812 L 0 37.007812 Z M 0 0 " clip-rule="nonzero"/></clipPath></defs><g clip-path="url(#6576052390)"><path fill="#000000" d="M 24.101562 27.421875 L 33.289062 36.601562 C 34.199219 37.511719 35.675781 37.511719 36.582031 36.601562 C 37.492188 35.691406 37.492188 34.214844 36.582031 33.308594 L 27.40625 24.132812 C 29.25 21.621094 30.34375 18.519531 30.34375 15.164062 C 30.34375 6.792969 23.546875 0 15.179688 0 C 6.808594 0 0.015625 6.792969 0.015625 15.164062 C 0.015625 23.535156 6.808594 30.328125 15.179688 30.328125 C 18.511719 30.328125 21.597656 29.25 24.101562 27.421875 Z M 15.179688 4.660156 C 20.976562 4.660156 25.683594 9.367188 25.683594 15.164062 C 25.683594 20.960938 20.976562 25.667969 15.179688 25.667969 C 9.382812 25.667969 4.675781 20.960938 4.675781 15.164062 C 4.675781 9.367188 9.382812 4.660156 15.179688 4.660156 Z M 15.179688 4.660156 " fill-opacity="1" fill-rule="evenodd"/></g></svg>